<?xml version="1.0" standalone="no"?>
<!DOCTYPE svg PUBLIC "-//W3C//DTD SVG 20010904//EN"
 "http://www.w3.org/TR/2001/REC-SVG-20010904/DTD/svg10.dtd">
<svg version="1.0" xmlns="http://www.w3.org/2000/svg"
 width="300.000000pt" height="300.000000pt" viewBox="0 0 300.000000 300.000000"
 preserveAspectRatio="xMidYMid meet">
<metadata>
Created by potrace 1.11, written by Peter Selinger 2001-2013
</metadata>
<g transform="translate(0.000000,300.000000) scale(0.100000,-0.100000)"
fill="#000000" stroke="none">
<path d="M1065 2365 c-5 -2 -22 -6 -38 -9 -35 -8 -101 -67 -117 -106 -7 -17
-15 -30 -19 -30 -4 0 -4 -33 -1 -73 5 -51 13 -85 29 -110 22 -36 70 -81 78
-73 3 2 -6 24 -18 48 -27 52 -30 138 -6 184 9 17 34 47 56 67 53 48 106 57
175 31 31 -12 16 16 -21 40 -36 22 -96 38 -118 31z"/>
<path d="M1555 2163 c-34 -50 -65 -153 -65 -214 l0 -49 50 0 50 0 0 -55 c0
-30 -4 -55 -10 -55 -5 0 -10 7 -10 15 0 8 -5 15 -10 15 -6 0 -13 -7 -16 -15
-4 -8 -10 -15 -15 -15 -5 0 -9 7 -9 15 0 8 -7 15 -15 15 -8 0 -15 -9 -15 -20
0 -11 7 -20 15 -20 8 0 15 -4 15 -10 0 -14 27 -12 33 3 4 10 6 10 6 0 1 -7 8
-13 16 -13 13 0 15 -20 13 -137 l-3 -138 -42 -3 -43 -3 0 105 c0 58 -4 106 -9
106 -11 0 -57 -67 -76 -112 -14 -35 -22 -178 -9 -178 3 0 23 15 45 32 37 30
42 31 50 15 8 -13 24 -17 74 -17 36 0 65 -4 65 -10 0 -5 -13 -7 -30 -4 -36 8
-80 -18 -80 -46 0 -19 -7 -20 -108 -20 l-108 0 2 56 c1 31 5 78 9 105 l7 49
-185 0 c-101 0 -218 -3 -260 -6 -66 -6 -77 -10 -77 -25 0 -11 4 -19 10 -19 6
0 11 -147 12 -407 l3 -408 628 -3 627 -2 0 379 c0 283 3 380 12 383 6 2 9 12
5 21 -6 15 -25 17 -161 17 l-156 0 -6 28 c-14 64 -28 95 -60 138 l-34 44 0
160 c0 170 -11 225 -63 301 -31 45 -42 46 -72 2z m53 -784 c-2 -6 -8 -10 -13
-10 -5 0 -11 4 -13 10 -2 6 4 11 13 11 9 0 15 -5 13 -11z"/>
<path d="M810 2180 c0 -5 7 -10 15 -10 8 0 15 5 15 10 0 6 -7 10 -15 10 -8 0
-15 -4 -15 -10z"/>
<path d="M1015 2150 c-9 -15 4 -30 26 -30 25 0 25 16 0 30 -13 7 -22 7 -26 0z"/>
<path d="M1080 2100 c0 -5 5 -10 10 -10 6 0 10 5 10 10 0 6 -4 10 -10 10 -5 0
-10 -4 -10 -10z"/>
<path d="M1265 2100 c3 -5 10 -10 16 -10 5 0 9 5 9 10 0 6 -7 10 -16 10 -8 0
-12 -4 -9 -10z"/>
<path d="M1200 2090 c0 -5 5 -10 10 -10 6 0 10 5 10 10 0 6 -4 10 -10 10 -5 0
-10 -4 -10 -10z"/>
<path d="M1350 2051 c0 -6 5 -13 10 -16 6 -3 10 1 10 9 0 9 -4 16 -10 16 -5 0
-10 -4 -10 -9z"/>
<path d="M1092 2038 c6 -18 28 -21 28 -4 0 9 -7 16 -16 16 -9 0 -14 -5 -12
-12z"/>
<path d="M1240 2030 c0 -5 7 -10 16 -10 8 0 12 5 9 10 -3 6 -10 10 -16 10 -5
0 -9 -4 -9 -10z"/>
</g>
</svg>
